<svg width="20" height="20" viewBox="0 0 20 20" fill="none" xmlns="http://www.w3.org/2000/svg">
<g clip-path="url(#clip0_162_750)">
<path d="M10 20C4.48633 20 0 15.5137 0 10C0 4.48633 4.48633 0 10 0C15.5137 0 20 4.48633 20 10C20 15.5137 15.5137 20 10 20ZM10 1.66602C5.4043 1.66602 1.66602 5.4043 1.66602 10C1.66602 14.5957 5.4043 18.334 10 18.334C14.5957 18.334 18.334 14.5957 18.334 10C18.334 5.4043 14.5957 1.66602 10 1.66602Z" fill="#3688FF"/>
<path d="M13.334 10.834H6.66602C6.20508 10.834 5.83203 10.4609 5.83203 10C5.83203 9.53906 6.20508 9.16602 6.66602 9.16602H13.332C13.793 9.16602 14.166 9.53906 14.166 10C14.166 10.4609 13.793 10.834 13.334 10.834Z" fill="#5F6379"/>
<path d="M10 14.166C9.53906 14.166 9.16602 13.793 9.16602 13.332V6.66602C9.16602 6.20508 9.53906 5.83203 10 5.83203C10.4609 5.83203 10.834 6.20508 10.834 6.66602V13.332C10.834 13.793 10.4609 14.166 10 14.166Z" fill="#5F6379"/>
</g>
<defs>
<clipPath id="clip0_162_750">
<rect width="20" height="20" fill="white"/>
</clipPath>
</defs>
</svg>
