<svg width="11" height="11" viewBox="0 0 11 11" fill="none" xmlns="http://www.w3.org/2000/svg">
<g clip-path="url(#clip0_133_18)">
<path d="M5.5 9.625C7.77817 9.625 9.625 7.77817 9.625 5.5C9.625 3.22183 7.77817 1.375 5.5 1.375C3.22183 1.375 1.375 3.22183 1.375 5.5C1.375 7.77817 3.22183 9.625 5.5 9.625Z" fill="white"/>
<path d="M5.5 0C2.46262 0 0 2.46262 0 5.5C0 8.53738 2.46262 11 5.5 11C8.53738 11 11 8.53738 11 5.5C11 2.46262 8.53738 0 5.5 0ZM5.5 9.625C3.22197 9.625 1.375 7.77803 1.375 5.5C1.375 3.22197 3.22197 1.375 5.5 1.375C7.77803 1.375 9.625 3.22197 9.625 5.5C9.625 7.77803 7.77803 9.625 5.5 9.625Z" fill="#726565"/>
<path d="M6.1875 5.21537V2.75C6.1875 2.36998 5.88002 2.0625 5.5 2.0625C5.11998 2.0625 4.8125 2.36998 4.8125 2.75V5.5C4.8125 5.58989 4.83055 5.67858 4.86561 5.76245C4.9005 5.84702 4.95086 5.92367 5.01463 5.98675L6.37828 7.35041C6.64744 7.61956 7.09466 7.63314 7.36381 7.36381C7.63228 7.09534 7.63572 6.66359 7.36656 6.39427L6.1875 5.21537Z" fill="#726565"/>
</g>
<defs>
<clipPath id="clip0_133_18">
<rect width="11" height="11" fill="white"/>
</clipPath>
</defs>
</svg>
