<svg width="12" height="12" viewBox="0 0 12 12" fill="none" xmlns="http://www.w3.org/2000/svg">
<path d="M11.285 7.91271C10.5784 7.22053 9.54354 7.042 8.66695 7.37594L7.3875 6.12265L10.8628 2.71835C11.6291 1.96769 11.6291 0.750679 10.8628 4.6875e-05L6 4.76348L1.13715 0C0.370879 0.750656 0.370879 1.96767 1.13715 2.7183L4.61248 6.1226L3.33303 7.37589C2.45646 7.04196 1.42156 7.22048 0.714942 7.91266C-0.238314 8.84648 -0.238314 10.3658 0.714942 11.2996C1.66825 12.2335 3.21928 12.2335 4.17259 11.2996C5.04119 10.4488 5.11797 9.11189 4.40362 8.17462L6.00002 6.61085L7.59643 8.17462C6.88208 9.11182 6.95883 10.4487 7.82744 11.2996C8.78074 12.2335 10.3318 12.2335 11.2851 11.2996C12.2383 10.3659 12.2383 8.84648 11.285 7.91271ZM3.2296 10.3759C2.79631 10.8004 2.09124 10.8004 1.65796 10.3759C1.22463 9.95149 1.22463 9.26083 1.65796 8.8364C2.09124 8.41193 2.79631 8.41193 3.2296 8.8364C3.66291 9.26083 3.66291 9.95149 3.2296 10.3759ZM10.342 10.3759C9.90876 10.8004 9.20369 10.8004 8.7704 10.3759C8.33707 9.95149 8.33707 9.26083 8.7704 8.8364C9.20369 8.41193 9.90876 8.41193 10.342 8.8364C10.7754 9.26083 10.7754 9.95149 10.342 10.3759Z" fill="currentColor"/>
</svg>
