<svg width="12" height="12" viewBox="0 0 12 12" fill="none" xmlns="http://www.w3.org/2000/svg">
<g clip-path="url(#clip0_162_700)">
<path d="M5.89733 9.796C5.81783 9.796 5.59818 9.67926 5.3724 9.67926C4.97485 9.67926 4.52087 9.79642 4.52087 9.796C4.52087 9.796 4.86075 9.99912 5.36379 10.0223C5.52424 10.0295 5.7127 9.98008 5.89684 9.98008C6.12046 9.98008 6.33185 10.0158 6.51857 10.0053C6.96699 9.98078 7.27295 9.796 7.27295 9.796C7.27295 9.796 6.89652 9.69608 6.54324 9.69608C6.25868 9.69601 5.99531 9.796 5.89733 9.796Z" fill="#2A4780"/>
<path d="M5.89732 8.98108C5.03836 8.98108 4.33971 9.79599 4.33971 9.79599C4.33971 9.79599 5.03829 10.7801 5.89732 10.7801C6.75656 10.7801 7.45473 9.79599 7.45473 9.79599C7.45473 9.79599 6.75656 8.98108 5.89732 8.98108ZM5.89732 10.5112C5.03787 10.5112 4.52114 9.79599 4.52114 9.79599C4.52114 9.79599 5.28359 9.25605 5.46482 9.26898C5.64577 9.2819 5.89739 9.4739 5.89739 9.4739C5.89739 9.4739 6.2135 9.26898 6.43344 9.26898C6.65337 9.26898 7.27343 9.79599 7.27343 9.79599C7.27343 9.79599 6.75656 10.5112 5.89732 10.5112Z" fill="#2A4780"/>
<path d="M5.42425 7.22623C5.42425 6.68324 4.98257 6.24219 4.44013 6.24219C3.897 6.24219 3.45622 6.68324 3.45622 7.22623C3.45622 7.76881 3.89734 8.20993 4.44013 8.20993C4.98257 8.20993 5.42425 7.76881 5.42425 7.22623ZM4.79613 6.96467C5.04275 7.08329 5.10661 7.34867 5.12155 7.45367C5.13677 7.5586 4.91336 7.49273 4.90592 7.42588C4.90085 7.37911 4.91829 7.30684 4.80342 7.19885L4.80009 7.26619C4.71204 7.41865 4.51657 7.47119 4.36466 7.383C4.21234 7.2951 4.16029 7.1015 4.24674 6.94953C4.01068 6.91228 3.7576 6.90734 3.7576 6.90734C3.7576 6.90734 4.46508 6.80415 4.79613 6.96467ZM3.85037 7.32206C3.85037 7.32206 4.0742 7.42546 4.27134 7.4666C4.44882 7.50301 4.89042 7.52316 4.89042 7.52316C4.89042 7.52316 4.51268 7.57792 4.31262 7.57792C4.11248 7.57764 3.85037 7.32206 3.85037 7.32206Z" fill="#2A4780"/>
<path d="M10.8519 5.2271C10.8564 5.141 10.8657 5.05615 10.8657 4.96853C10.8657 2.22882 8.63669 0 5.89733 0C3.15797 0 0.92894 2.22924 0.92894 4.96853C0.92894 6.43393 1.56991 7.74909 2.58252 8.659C3.2301 10.5935 5.05393 11.9999 5.89733 11.9999C6.74066 11.9999 8.56435 10.5935 9.21227 8.659C9.61302 8.29848 9.95297 7.87188 10.2207 7.39963C10.2823 7.35321 10.335 7.30033 10.3698 7.23841L10.4869 7.03453L10.4265 7.0034L10.4272 7.00152L10.5615 6.92397C10.8528 6.75629 11.0255 6.31455 11.0628 5.97453C11.0977 5.65453 11.0214 5.39103 10.8519 5.2271ZM10.3842 4.82593L10.3865 4.85199L10.369 4.82482L10.3842 4.82593ZM5.89733 0.473226C8.0365 0.473226 9.82754 1.97657 10.2781 3.98184C10.0595 3.65628 9.69975 3.41098 9.35257 3.41098L9.2564 3.42182C7.43041 1.72099 4.7604 1.35554 2.78376 1.73426C3.59221 0.955208 4.68869 0.473226 5.89733 0.473226ZM7.42972 7.38295C7.27761 7.4712 7.08227 7.41867 6.99464 7.26614L6.99082 7.1988C6.87595 7.30679 6.89346 7.37906 6.88853 7.42583C6.8813 7.4924 6.65775 7.55814 6.67304 7.45362C6.68826 7.34862 6.75198 7.08324 6.99839 6.96462C7.32924 6.8041 8.03643 6.90722 8.03643 6.90722C8.03643 6.90722 7.78398 6.91251 7.54743 6.9494C7.63423 7.10145 7.5819 7.2954 7.42972 7.38295ZM7.94429 7.32208C7.94429 7.32208 7.68218 7.57766 7.48232 7.57766C7.28136 7.57766 6.90417 7.52284 6.90417 7.52284C6.90417 7.52284 7.34605 7.5031 7.52325 7.46585C7.72019 7.42548 7.94429 7.32208 7.94429 7.32208ZM8.44886 3.36428C8.20613 3.41258 7.98334 3.53558 7.81101 3.74321C7.77196 3.79074 7.74298 3.84661 7.70948 3.89929C7.17865 3.62056 6.56047 3.48269 5.89733 3.48269C5.27421 3.48269 4.68869 3.60208 4.18009 3.84793C4.21456 3.81354 4.24583 3.77698 4.28141 3.74356C5.09368 2.97889 6.13686 2.59142 7.22146 2.65417C7.65209 2.83929 8.06409 3.07812 8.44886 3.36428ZM2.37773 7.75709C1.76872 6.98978 1.40196 6.02158 1.40196 4.96887C1.40196 3.99032 1.71973 3.08702 2.25237 2.34841C3.31772 2.02292 4.71628 1.95044 6.07807 2.27635C5.29645 2.44535 4.56722 2.82449 3.9571 3.39931C3.36484 3.95689 2.93539 4.65429 2.72692 5.34613C2.48676 5.86995 2.34806 6.50606 2.34806 7.26809C2.34813 7.43305 2.35862 7.59656 2.37773 7.75709ZM5.89733 11.6866C4.69098 11.6866 2.68488 9.23625 2.68488 7.16309C2.68488 5.36017 4.12283 3.89887 5.89733 3.89887C6.48966 3.89887 7.04329 4.06495 7.51992 4.34902C7.47225 4.55346 7.46321 4.7684 7.50206 4.97485L7.54236 5.17297L7.51026 5.23801C7.37489 5.5667 7.3924 5.93464 7.54452 6.26166C7.48323 6.24978 7.41971 6.24262 7.35481 6.24262C6.8123 6.24262 6.37069 6.68381 6.37069 7.22632C6.37069 7.76925 6.8123 8.21037 7.35481 8.21037C7.89822 8.21037 8.33851 7.76925 8.33851 7.22632C8.33851 7.10339 8.31391 6.98721 8.27235 6.87839L8.54454 6.93196C8.55295 7.00687 8.57053 7.07734 8.60007 7.14189C8.69026 7.3366 8.87782 7.45668 9.08907 7.52325C8.88074 9.50927 7.03453 11.6866 5.89733 11.6866ZM8.47005 6.55171C8.46637 6.51058 8.52293 6.43421 8.61918 6.34373C8.58408 6.46353 8.55671 6.58708 8.54531 6.70689L8.47005 6.55171ZM9.41685 7.75709C9.42387 7.70122 9.42297 7.64382 9.42679 7.58711C9.46257 7.58941 9.49822 7.59135 9.53262 7.59135C9.49287 7.64604 9.45862 7.70386 9.41685 7.75709ZM10.4488 6.73003C10.0231 5.90539 9.42158 5.7507 9.42158 5.7507C9.42158 5.7507 9.65333 6.86088 10.1751 7.12744C9.98132 7.46585 8.99102 7.45369 8.80388 7.04759C8.61702 6.64143 9.12409 5.72951 9.12409 5.72951C9.12409 5.72951 8.08153 6.26361 8.26818 6.64879C7.86625 6.56999 7.46968 5.92818 7.71755 5.32279C7.89968 4.87826 8.92973 5.37289 8.92973 5.37289C8.92973 5.37289 7.95284 4.52622 7.72248 4.93309C7.58941 4.22769 8.0864 3.41188 8.84835 3.57977C8.24504 4.13458 9.13903 5.15858 9.13903 5.15858C9.13903 5.15858 8.80617 4.04202 9.05265 3.76587C9.41845 3.35539 10.2557 3.98552 10.2607 4.59085C9.83212 4.55854 9.42679 5.41257 9.42679 5.41257C9.42679 5.41257 10.361 5.08082 10.6909 5.38067C11.0192 5.68191 10.7729 6.54331 10.4488 6.73003ZM10.0864 6.5661C10.0705 6.60793 10.0557 6.64977 10.0382 6.6909C9.94921 6.56158 9.86895 6.40377 9.80391 6.23832C9.89529 6.32129 9.99174 6.43073 10.0864 6.5661ZM9.95408 5.05768L9.9119 5.06116L9.93858 5.03135L9.95408 5.05768Z" fill="#2A4780"/>
</g>
<defs>
<clipPath id="clip0_162_700">
<rect width="12" height="12" fill="white"/>
</clipPath>
</defs>
</svg>
