<svg width="16" height="16" viewBox="0 0 16 16" fill="none" xmlns="http://www.w3.org/2000/svg">
<path d="M8.31982 0.336243C8.25639 0.336243 8.1932 0.357261 8.13924 0.399917L1.43103 5.86936C1.30561 5.97295 1.2823 6.16435 1.38147 6.29841C1.48063 6.42943 1.66386 6.45378 1.79219 6.35018L2.19493 6.0217V14.0316C2.19493 14.1991 2.32618 14.3362 2.48659 14.3362H6.56985V8.85193H10.0698V14.3362H14.1531C14.3135 14.3362 14.4447 14.1991 14.4447 14.0316V6.0217L14.8475 6.35018C14.9029 6.39284 14.9639 6.41445 15.028 6.41445C15.1155 6.41445 15.1998 6.37458 15.2582 6.29841C15.3573 6.16435 15.334 5.97295 15.2086 5.86936L8.5004 0.399917C8.44645 0.357261 8.38326 0.336243 8.31982 0.336243ZM11.2364 1.53951V1.85966L12.9864 3.28549V1.53951H11.2364Z" fill="#0D2044"/>
<path d="M8.31982 0.336243C8.25639 0.336243 8.1932 0.357261 8.13924 0.399917L1.43103 5.86936C1.30561 5.97295 1.2823 6.16435 1.38147 6.29841C1.48063 6.42943 1.66386 6.45378 1.79219 6.35018L2.19493 6.0217V14.0316C2.19493 14.1991 2.32618 14.3362 2.48659 14.3362H6.56985V8.85193H10.0698V14.3362H14.1531C14.3135 14.3362 14.4447 14.1991 14.4447 14.0316V6.0217L14.8475 6.35018C14.9029 6.39284 14.9639 6.41445 15.028 6.41445C15.1155 6.41445 15.1998 6.37458 15.2582 6.29841C15.3573 6.16435 15.334 5.97295 15.2086 5.86936L8.5004 0.399917C8.44645 0.357261 8.38326 0.336243 8.31982 0.336243ZM11.2364 1.53951V1.85966L12.9864 3.28549V1.53951H11.2364Z" fill="#0D2044"/>
</svg>
