<svg width="12" height="12" viewBox="0 0 12 12" fill="none" xmlns="http://www.w3.org/2000/svg">
<path d="M11.0089 5.62069C11.0089 5.62069 10.8941 5.76131 10.6671 5.98837C10.44 6.21544 6.26513 10.3901 6.26513 10.3901C6.19181 10.4634 6.096 10.5 6 10.5C5.904 10.5 5.80819 10.4634 5.73488 10.3901C5.73488 10.3901 1.56 6.21525 1.33294 5.98819C1.10588 5.76113 0.991125 5.6205 0.991125 5.6205C0.608437 5.16469 0.375 4.5795 0.375 3.9375C0.375 2.48775 1.55025 1.3125 3 1.3125C3.72487 1.3125 4.38112 1.60612 4.85606 2.08144L4.85775 2.07975L5.73488 2.95669C5.88131 3.10312 6.11869 3.10312 6.26513 2.95669L7.14225 2.07975L7.14394 2.08144C7.61888 1.60612 8.27513 1.3125 9 1.3125C10.4497 1.3125 11.625 2.48775 11.625 3.9375C11.625 4.5795 11.3916 5.16469 11.0089 5.62069Z" fill="white"/>
<path d="M11.0089 5.62069C11.0089 5.62069 10.8941 5.76131 10.6671 5.98837C10.44 6.21544 6.26513 10.3901 6.26513 10.3901C6.19181 10.4634 6.096 10.5 6 10.5C5.904 10.5 5.80819 10.4634 5.73488 10.3901C5.73488 10.3901 1.56 6.21525 1.33294 5.98819C1.10588 5.76113 0.991125 5.6205 0.991125 5.6205C0.608437 5.16469 0.375 4.5795 0.375 3.9375C0.375 2.48775 1.55025 1.3125 3 1.3125C3.72487 1.3125 4.38112 1.60612 4.85606 2.08144L4.85775 2.07975L5.73488 2.95669C5.88131 3.10312 6.11869 3.10312 6.26513 2.95669L7.14225 2.07975L7.14394 2.08144C7.61888 1.60612 8.27513 1.3125 9 1.3125C10.4497 1.3125 11.625 2.48775 11.625 3.9375C11.625 4.5795 11.3916 5.16469 11.0089 5.62069Z" fill="white"/>
<path d="M9 0.9375C8.17163 0.9375 7.42163 1.27331 6.87881 1.81631L6.13275 2.559C6.05944 2.63231 5.94094 2.63231 5.86763 2.559C5.86763 2.559 5.12306 1.81463 5.12156 1.81631C4.57837 1.27331 3.82838 0.9375 3 0.9375C1.34306 0.9375 0 2.28056 0 3.9375C0 4.56337 0.192 5.14425 0.519938 5.625C0.519938 5.625 0.657562 5.84325 0.820312 6.00581C0.983063 6.16837 5.46975 10.6552 5.46975 10.6552C5.61619 10.8017 5.80819 10.875 6 10.875C6.19181 10.875 6.38381 10.8017 6.53025 10.6552C6.53025 10.6552 11.0171 6.16837 11.1797 6.00581C11.3422 5.84325 11.4801 5.625 11.4801 5.625C11.808 5.14425 12 4.56337 12 3.9375C12 2.28056 10.6569 0.9375 9 0.9375ZM11.0089 5.62069C11.0089 5.62069 10.8941 5.76131 10.6671 5.98837C10.44 6.21544 6.26513 10.3901 6.26513 10.3901C6.19181 10.4634 6.096 10.5 6 10.5C5.904 10.5 5.80819 10.4634 5.73488 10.3901C5.73488 10.3901 1.56 6.21525 1.33294 5.98819C1.10588 5.76113 0.991125 5.6205 0.991125 5.6205C0.608437 5.16469 0.375 4.5795 0.375 3.9375C0.375 2.48775 1.55025 1.3125 3 1.3125C3.72487 1.3125 4.38112 1.60612 4.85606 2.08144L4.85775 2.07975L5.73488 2.95669C5.88131 3.10313 6.11869 3.10313 6.26513 2.95669L7.14225 2.07975L7.14394 2.08144C7.61888 1.60612 8.27512 1.3125 9 1.3125C10.4497 1.3125 11.625 2.48775 11.625 3.9375C11.625 4.5795 11.3916 5.16469 11.0089 5.62069Z" fill="#394240"/>
<path d="M9 2.0625C8.89631 2.0625 8.8125 2.14631 8.8125 2.25C8.8125 2.35369 8.89631 2.4375 9 2.4375C9.82838 2.4375 10.5 3.10912 10.5 3.9375C10.5 4.04119 10.5838 4.125 10.6875 4.125C10.7912 4.125 10.875 4.04119 10.875 3.9375C10.875 2.90213 10.0354 2.0625 9 2.0625Z" fill="#394240"/>
</svg>
