<svg width="8" height="12" viewBox="0 0 8 12" fill="none" xmlns="http://www.w3.org/2000/svg">
<path d="M5.20754 10.1887H2.03772C1.90187 10.1887 1.81129 10.2792 1.81129 10.4151C1.81129 10.5509 1.90187 10.6415 2.03772 10.6415H5.20754C5.34339 10.6415 5.43396 10.5509 5.43396 10.4151C5.43394 10.2792 5.34339 10.1887 5.20754 10.1887Z" fill="#2A4780"/>
<path d="M5.20754 9.28302H2.03772C1.90187 9.28302 1.81129 9.3736 1.81129 9.50942C1.81129 9.64527 1.90187 9.73585 2.03772 9.73585H5.20754C5.34339 9.73585 5.43396 9.64527 5.43396 9.50942C5.43394 9.37357 5.34339 9.28302 5.20754 9.28302Z" fill="#2A4780"/>
<path d="M6.05952 3.18591C5.95918 2.21723 5.70211 1.20332 5.07167 0.113214C5.02639 0.0452759 4.95848 0 4.8679 0H2.39998C2.30941 0 2.24149 0.0452759 2.19622 0.113214C1.57962 1.1537 1.31293 2.18688 1.20165 3.17559C0.436378 3.67757 0 4.5225 0 5.41133V9.05661C0 10.6868 1.31322 12 2.94339 12H4.30188C5.93208 12 7.24527 10.6868 7.24527 9.05661V5.41131C7.24527 4.50658 6.81498 3.68803 6.05952 3.18591ZM2.51319 0.452831V0.475469H4.70941C5.44877 1.75253 5.62689 2.92982 5.66035 4.06289V5.23018V5.86414V6.0679C5.66035 6.97356 4.93581 7.6981 4.03015 7.6981H3.21507C2.30941 7.6981 1.58487 6.97356 1.58487 6.0679V5.86414V5.34339V4.25295C1.61534 3.04676 1.78689 1.74981 2.51319 0.452831ZM6.79244 9.05659C6.79244 10.4377 5.68301 11.5471 4.30188 11.5471H2.94339C1.56226 11.5471 0.452831 10.4377 0.452831 9.05659V5.41131C0.452831 4.79999 0.701896 4.2113 1.13206 3.80375C1.13206 3.80375 1.13206 4.11067 1.13206 4.25429C1.12316 4.627 1.12703 4.99081 1.13206 5.34337C1.13206 5.57001 1.13206 5.77881 1.13206 5.86411C1.13206 5.8975 1.13206 6.06788 1.13206 6.06788C1.13206 6.1581 1.13772 6.24693 1.14873 6.33404C1.15313 6.36888 1.15838 6.40346 1.16447 6.43773C1.1675 6.45487 1.17075 6.47192 1.17421 6.48892C1.36769 7.44017 2.20472 8.1509 3.21509 8.1509H4.03018C4.53537 8.1509 4.99721 7.97322 5.35696 7.67663C5.3698 7.66603 5.38253 7.65528 5.39512 7.64439C5.42028 7.62261 5.44493 7.60021 5.469 7.57727C5.49309 7.55432 5.51662 7.53077 5.53956 7.5067C5.574 7.47057 5.60714 7.4332 5.63893 7.39466C5.64953 7.38181 5.65997 7.36884 5.67026 7.35573C5.69084 7.32951 5.71078 7.30279 5.7301 7.27559C5.74942 7.24839 5.76809 7.22069 5.78612 7.19252C5.80415 7.16434 5.82149 7.13571 5.83818 7.10664C5.84651 7.0921 5.85468 7.07746 5.86268 7.06268C5.87868 7.03317 5.89396 7.0032 5.90855 6.97285C6.0398 6.69952 6.11323 6.39267 6.11323 6.0679V5.86414V5.23018C6.11881 4.83836 6.1244 4.44239 6.11323 4.03987V3.80377C6.54337 4.23397 6.79244 4.79999 6.79244 5.41131V9.05659Z" fill="#2A4780"/>
</svg>
