<svg width="20" height="20" viewBox="0 0 20 20" fill="none" xmlns="http://www.w3.org/2000/svg">
<g clip-path="url(#clip0_162_792)">
<path d="M10 20C4.48633 20 0 15.5137 0 10C0 4.48633 4.48633 0 10 0C15.5137 0 20 4.48633 20 10C20 15.5137 15.5137 20 10 20ZM10 1.66602C5.4043 1.66602 1.66602 5.4043 1.66602 10C1.66602 14.5957 5.4043 18.334 10 18.334C14.5957 18.334 18.334 14.5957 18.334 10C18.334 5.4043 14.5957 1.66602 10 1.66602Z" fill="#FF0000"/>
<path d="M12.3574 13.1895C12.1445 13.1895 11.9316 13.1074 11.7676 12.9453L7.05273 8.23242C6.72656 7.90625 6.72656 7.37891 7.05273 7.05469C7.37891 6.72852 7.90625 6.72852 8.23047 7.05469L12.9453 11.7695C13.2715 12.0957 13.2715 12.623 12.9453 12.9473C12.7832 13.1094 12.5703 13.1895 12.3574 13.1895Z" fill="#5F6379"/>
<path d="M7.64258 13.1895C7.42969 13.1895 7.2168 13.1074 7.05273 12.9453C6.72656 12.6191 6.72656 12.0918 7.05273 11.7676L11.7676 7.05273C12.0938 6.72656 12.6211 6.72656 12.9453 7.05273C13.2715 7.37891 13.2715 7.90625 12.9453 8.23047L8.23242 12.9453C8.06836 13.1094 7.85547 13.1895 7.64258 13.1895Z" fill="#5F6379"/>
</g>
<defs>
<clipPath id="clip0_162_792">
<rect width="20" height="20" fill="white"/>
</clipPath>
</defs>
</svg>
