<svg width="12" height="12" viewBox="0 0 12 12" fill="none" xmlns="http://www.w3.org/2000/svg">
<g clip-path="url(#clip0_162_670)">
<path d="M9.91428 3.33324L9.77368 3.47206C9.56012 3.68738 9.20776 3.68738 8.99244 3.47206L8.52618 3.00581C8.31085 2.79049 8.31085 2.43987 8.52618 2.22455L9.22023 1.53052C9.23626 1.53408 9.25405 1.53581 9.27184 1.53764C9.18641 1.80277 9.13836 2.06796 9.13304 2.30996C9.08143 2.33133 9.03161 2.36156 8.99068 2.40429C8.82341 2.57156 8.82341 2.84206 8.99068 3.00938C9.09034 3.11079 9.23092 3.14993 9.36083 3.1286C9.42667 3.20335 9.50321 3.2603 9.59218 3.29766C9.66336 3.32611 9.73989 3.34036 9.81819 3.34036C9.85021 3.34036 9.88225 3.33858 9.91428 3.33324Z" fill="#F8F1C3"/>
<path d="M8.2464 3.286L8.7133 3.75289C8.92813 3.96772 9.27964 3.96772 9.49447 3.75289L9.91377 3.3336L9.77452 3.47284C9.5597 3.68767 9.20818 3.68767 8.99335 3.47284L8.52646 3.00594C8.31165 2.79114 8.31163 2.43962 8.52643 2.22479L8.2464 2.50482C8.0316 2.71965 8.0316 3.07117 8.2464 3.286Z" fill="#F8F1C3"/>
<path d="M11.1547 2.03587C10.9874 2.44697 10.7543 2.79047 10.4998 3.0218C10.4891 2.93817 10.4785 2.85809 10.4678 2.7798C10.4607 2.72285 10.4535 2.66587 10.4464 2.61253C10.5941 2.43457 10.7383 2.20144 10.854 1.91489C11.1725 1.13189 11.08 0.459187 10.7952 0.343523C10.765 0.331055 10.7294 0.32393 10.692 0.32393C10.4073 0.32393 9.94812 0.710086 9.65628 1.42549C9.63493 1.47888 9.61533 1.53052 9.59754 1.58212C9.49611 1.56787 9.38755 1.55362 9.27188 1.53764C9.2968 1.45931 9.32527 1.38101 9.35553 1.30451C9.66872 0.535664 10.2186 0 10.692 0C10.7294 0 10.7667 0.0035625 10.8006 0.00890625C10.8415 0.0160312 10.8807 0.0266719 10.918 0.0427031C11.1049 0.119203 11.2419 0.286523 11.3149 0.523195C11.3434 0.613969 11.3629 0.717187 11.3718 0.827508C11.4021 1.19055 11.3255 1.61946 11.1547 2.03587Z" fill="#A4A4A3"/>
<path d="M9.64277 2.95197C9.54476 2.86794 9.4803 2.70381 9.46219 2.4853C9.45757 2.42966 9.45612 2.37186 9.45748 2.31252C9.35409 2.26928 9.23721 2.26839 9.13329 2.30994C9.13179 2.3792 9.13359 2.44679 9.13901 2.51211C9.1608 2.77501 9.23777 2.98548 9.3615 3.12897C9.44688 3.11504 9.52887 3.07527 9.5947 3.00943C9.6127 2.99139 9.62864 2.97212 9.64277 2.95197Z" fill="#9B8E84"/>
<path d="M10.468 2.7794C10.4604 2.72209 10.4529 2.66624 10.4457 2.61194C10.3725 2.06558 10.3175 1.68182 10.3175 1.68182C10.3175 1.68182 10.0299 1.64062 9.59825 1.58209C9.511 1.83517 9.46271 2.08593 9.45751 2.31255C9.50739 2.3334 9.55412 2.36404 9.59471 2.40463C9.74373 2.55365 9.75967 2.78519 9.64281 2.95199C9.62867 2.97215 9.61274 2.99144 9.59471 3.00944C9.52888 3.07527 9.44689 3.11505 9.36151 3.12897C9.42629 3.20408 9.50387 3.26085 9.59307 3.29718C9.6639 3.32603 9.73996 3.34065 9.8191 3.34065C9.85035 3.34065 9.88196 3.33817 9.91377 3.3336L10.468 2.7794Z" fill="#ECE5BB"/>
<path d="M9.45749 2.31248C9.46269 2.08587 9.511 1.83511 9.59823 1.58203C9.49651 1.56823 9.38685 1.55348 9.271 1.53809C9.18557 1.80337 9.13853 2.06728 9.1333 2.30988C9.23722 2.26835 9.35411 2.26924 9.45749 2.31248Z" fill="#9B8E84"/>
<path d="M10.7792 6.30165L5.35849 11.7224C5.09866 11.9822 4.72317 12.0605 4.39394 11.9537C4.25512 11.9092 4.12343 11.8327 4.01311 11.7224L0.275903 7.98517C0.167341 7.8748 0.0908173 7.74491 0.0463329 7.60609C-0.0604484 7.27862 0.0178563 6.90137 0.275903 6.64154L5.6966 1.22085C5.81583 1.10157 7.89087 1.3561 9.22024 1.5305L8.52619 2.22453L8.24679 2.50574C8.03144 2.71928 8.03144 3.07164 8.24679 3.2852L8.71305 3.75327C8.92837 3.96859 9.27898 3.96859 9.4943 3.75327L9.9143 3.33327L10.4677 2.77984C10.4784 2.85814 10.4891 2.93821 10.4998 3.02183C10.6724 4.34582 10.8913 6.18953 10.7792 6.30165Z" fill="#FE7A01"/>
<path d="M4.59503 8.31258C4.56833 8.23606 4.52385 8.16485 4.45799 8.09904C4.39572 8.03679 4.33342 7.99048 4.26934 7.95844C4.20351 7.92821 4.13587 7.91396 4.06647 7.91752C4.00776 7.91752 3.9508 7.92999 3.89385 7.9531C3.8369 7.97803 3.77284 8.01717 3.70164 8.07059L3.51477 8.20763C3.48095 8.23252 3.45072 8.25033 3.42222 8.26097C3.39374 8.27166 3.36526 8.27878 3.33857 8.27878C3.31009 8.27878 3.28518 8.27344 3.26383 8.2628C3.24069 8.25211 3.2211 8.23786 3.20331 8.22005C3.15705 8.17383 3.13213 8.11685 3.13213 8.04921C3.13213 7.98162 3.16773 7.91217 3.23891 7.84102C3.2834 7.79653 3.33679 7.75559 3.3973 7.71645C3.4578 7.67731 3.529 7.65771 3.61084 7.65593L3.61262 7.32312C3.49696 7.32495 3.39196 7.34806 3.2994 7.39432C3.20509 7.43881 3.11076 7.50821 3.01644 7.60252C2.94348 7.67728 2.88653 7.75381 2.84917 7.83209C2.81179 7.91039 2.79044 7.98872 2.78512 8.06522C2.78155 8.14175 2.79224 8.21646 2.82069 8.28767C2.84917 8.36063 2.89544 8.42649 2.95595 8.48696C3.07164 8.60267 3.19265 8.65962 3.319 8.65606C3.37949 8.65606 3.44001 8.64359 3.50052 8.6187C3.55926 8.59554 3.62509 8.55818 3.69451 8.50657L3.88138 8.36953C3.92052 8.3393 3.95256 8.31971 3.97569 8.30902C3.99883 8.30016 4.02196 8.29482 4.04865 8.29303C4.10561 8.29303 4.15722 8.31614 4.20348 8.36243C4.25865 8.4176 4.28001 8.47988 4.26932 8.5493C4.25685 8.62046 4.21058 8.69525 4.13228 8.77531C4.07001 8.8376 4.00237 8.88741 3.9294 8.9266C3.85644 8.96752 3.77814 8.98709 3.69093 8.98709V9.32876C3.8244 9.33059 3.94541 9.30387 4.05219 9.24867C4.15719 9.19528 4.26219 9.1152 4.36539 9.01376C4.43657 8.9426 4.49352 8.86608 4.53801 8.78602C4.58071 8.70591 4.6074 8.62582 4.61809 8.54576C4.62705 8.46565 4.61994 8.3873 4.59503 8.31258Z" fill="#FDFEFE"/>
<path d="M4.30316 6.33905L4.09494 6.54725L4.95805 8.39803L5.23389 8.12222L5.07728 7.8001L5.55777 7.31782L5.87809 7.47797L6.15573 7.20033L4.30316 6.33905ZM4.92782 7.50291L4.60571 6.83728L5.26595 7.16475L4.92782 7.50291Z" fill="#FDFEFE"/>
<path d="M6.96726 5.91725L6.35151 6.533L5.23036 5.41187L4.96521 5.67699L6.32304 7.03308L7.20218 6.15397L6.96726 5.91725Z" fill="#FDFEFE"/>
<path d="M8.07593 4.80853L7.44596 5.43675L7.11673 5.1075L7.65239 4.57184L7.4157 4.33519L6.88003 4.87085L6.56328 4.55229L7.19147 3.92407L6.9548 3.68738L6.06143 4.58075L7.4175 5.93862L8.31087 5.04347L8.07593 4.80853Z" fill="#FDFEFE"/>
<path opacity="0.06" d="M9.9143 3.33328L9.91076 3.33862L10.4642 2.78514L9.9143 3.33328ZM9.90895 3.33862V3.3404H9.91073V3.33862H9.90895ZM9.90717 3.3404L9.77013 3.47744V3.47922L9.90895 3.3404H9.90717ZM9.90717 3.3404L9.77013 3.47744V3.47922L9.90895 3.3404H9.90717ZM11.3718 0.827574C11.3629 0.717254 11.3433 0.614035 11.3148 0.523262C11.3024 0.484121 11.2864 0.452105 11.2721 0.416504L11.0159 0.672746C11.0888 0.966371 11.0533 1.42017 10.8504 1.92025C10.8077 2.02528 10.7614 2.12311 10.7133 2.2121C10.7116 2.21744 10.708 2.221 10.708 2.22457C10.692 2.25302 10.676 2.27974 10.6617 2.30463C10.6422 2.33669 10.6244 2.36514 10.6066 2.39362C10.5799 2.43454 10.5532 2.4719 10.5265 2.50929C10.514 2.5271 10.4998 2.54491 10.4856 2.56268C10.4731 2.57871 10.4606 2.59652 10.4464 2.6125C10.45 2.6321 10.4517 2.65164 10.4535 2.67302C10.45 2.65343 10.4464 2.63388 10.4446 2.61429C10.4446 2.61607 10.4446 2.61607 10.4428 2.61785C10.3681 2.0715 10.3147 1.68712 10.3147 1.68712C10.3147 1.68712 10.2133 1.67287 10.0406 1.64798L9.13837 2.55021C9.14194 2.58049 9.1455 2.61072 9.15084 2.641C9.15616 2.66946 9.16151 2.69793 9.16685 2.72643C9.17397 2.75489 9.1811 2.78161 9.18822 2.80652C9.19533 2.83319 9.20423 2.85813 9.21314 2.88302C9.22204 2.90796 9.23273 2.93107 9.2434 2.95418C9.25408 2.97555 9.26475 2.99866 9.27722 3.01825C9.29857 3.05739 9.3217 3.09121 9.3484 3.12325C9.35018 3.12682 9.35196 3.13038 9.35552 3.13394C9.29322 3.14458 9.22739 3.14102 9.16687 3.12147C9.10104 3.10188 9.03874 3.0663 8.98713 3.01467C8.93018 2.95772 8.89104 2.88832 8.87501 2.8136L8.60093 3.08943H8.59915L8.31975 3.36881L6.84443 4.84413L6.57928 5.1093L5.74999 5.94042L5.48482 6.20379L5.01321 6.67537L4.76585 6.92271L4.68222 7.00633L4.42418 7.2644L3.42581 8.26275L3.08946 8.59912L1.98965 9.6989L4.01308 11.7223C4.12343 11.8327 4.2551 11.9092 4.39392 11.9537C4.72315 12.0605 5.09864 11.9821 5.35847 11.7223L10.7756 6.307L10.7792 6.30166C10.7827 6.2981 10.7881 6.28924 10.7899 6.28033C10.7917 6.27321 10.7934 6.26608 10.7952 6.25718C10.797 6.24649 10.7988 6.23407 10.8006 6.2216C10.8486 5.83544 10.6546 4.21596 10.4998 3.02362V3.02184C10.5158 3.00759 10.5318 2.99339 10.5479 2.97736C10.5639 2.96311 10.5781 2.94534 10.5941 2.92931C10.8112 2.70508 11.007 2.39899 11.1511 2.04129C11.1529 2.0395 11.1547 2.03772 11.1547 2.03594C11.3255 1.61948 11.4021 1.19062 11.3718 0.827574ZM9.59039 2.41146C9.73987 2.55918 9.7559 2.79049 9.63844 2.95776C9.54056 2.87414 9.47651 2.71043 9.45869 2.49152C9.45335 2.43635 9.45335 2.37764 9.45335 2.3189C9.5032 2.33845 9.55125 2.37054 9.59039 2.41146ZM9.75056 3.49877L9.4943 3.75328L9.72921 3.51658L9.73277 3.51302L9.77013 3.47744L9.77369 3.4721L9.90717 3.3404L9.77013 3.47744V3.47922L9.75056 3.49877ZM9.90717 3.3404L9.77013 3.47744V3.47922L9.90895 3.3404H9.90717ZM9.90895 3.33862V3.3404H9.91073V3.33862H9.90895Z" fill="#040000"/>
</g>
<defs>
<clipPath id="clip0_162_670">
<rect width="12" height="12" fill="white"/>
</clipPath>
</defs>
</svg>
