<?xml version="1.0" encoding="iso-8859-1"?>
<!-- Uploaded to: SVG Repo, www.svgrepo.com, Generator: SVG Repo Mixer Tools -->
<!DOCTYPE svg PUBLIC "-//W3C//DTD SVG 1.1//EN" "http://www.w3.org/Graphics/SVG/1.1/DTD/svg11.dtd">
<svg fill="#fff" version="1.1" id="Capa_1" xmlns="http://www.w3.org/2000/svg" xmlns:xlink="http://www.w3.org/1999/xlink" 
	 width="80px" height="80px" viewBox="0 0 70.075 70.075"
	 xml:space="preserve">
<g>
	<path d="M23.673,24.467l-4.888-8.318h4.154l6.813,12.589l6.846-12.589h4.156l-4.909,8.318h3.239v2.515h-4.722l-2.397,4.065h6.508
		v2.516h-6.96v8.784h-3.524v-8.784h-6.768v-2.516h6.321l-2.388-4.065h-4.811v-2.515H23.673z M8.422,49.146
		c-11.229-11.229-11.229-29.494,0-40.725c11.23-11.229,29.497-11.229,40.724,0c11.232,11.229,11.234,29.495,0,40.725
		C37.918,60.379,19.649,60.379,8.422,49.146z M10.762,46.807c9.937,9.938,26.107,9.937,36.043,0c9.939-9.937,9.939-26.108,0-36.044
		c-9.936-9.939-26.109-9.937-36.043,0C0.829,20.698,0.826,36.87,10.762,46.807z M52.547,47.707L52.547,47.707l-4.843,4.841
		c0.002,0,0.002,0,0.002,0l16.524,16.524c1.336,1.336,3.506,1.336,4.84,0c1.339-1.335,1.339-3.504,0-4.841L52.547,47.707z
		 M28.76,52.082c-5.468-1.309-10.65-4.092-14.916-8.359c-4.263-4.266-7.048-9.446-8.355-14.912c0.004,5.954,2.276,11.91,6.82,16.449
		C16.848,49.806,22.804,52.078,28.76,52.082z"/>
</g>
</svg>