<svg width="30" height="30" viewBox="0 0 15 15" fill="none" xmlns="http://www.w3.org/2000/svg">
<path fill-rule="evenodd" clip-rule="evenodd" d="M9 7.50037C9 8.36074 8.32875 9.0575 7.5 9.0575C6.67125 9.0575 6 8.36074 6 7.50037C6 6.64 6.67125 5.94324 7.5 5.94324C8.32875 5.94324 9 6.64 9 7.50037ZM7.5 10.4429C5.25825 10.4429 3.14625 9.33556 1.79925 7.50037C3.14625 5.66517 5.25825 4.55713 7.5 4.55713C9.74175 4.55713 11.8537 5.66517 13.2007 7.50037C11.8537 9.33556 9.74175 10.4429 7.5 10.4429ZM7.5 3C4.293 3 1.49925 4.81259 0 7.50037C1.49925 10.1881 4.293 12 7.5 12C10.707 12 13.5007 10.1881 15 7.50037C13.5007 4.81259 10.707 3 7.5 3Z" fill="#2A4780"/>
</svg>
